<svg width="222" height="54" viewBox="0 0 222 54" fill="none" xmlns="http://www.w3.org/2000/svg">
<circle cx="24" cy="24" r="23.5" fill="white" stroke="#4E5DEE"/>
<path d="M9.92293 15.7681C9.57654 14.1954 9.63889 13.1632 9.99914 12.5397C10.4494 11.8053 11.2946 11.6044 12.4377 11.7638C16.2134 12.3734 22.8987 17.2506 26.2518 19.8485" stroke="#4E5DEE" stroke-width="1.89837" stroke-linecap="round" stroke-linejoin="round"/>
<path d="M39.4827 21.6509L40.0993 21.5539C40.7651 21.3972 41.4558 21.3783 42.1291 21.4985L43.7225 21.7202L45.4199 21.9903" stroke="#4E5DEE" stroke-width="1.89837" stroke-linecap="round" stroke-linejoin="round"/>
<path d="M26.1101 30.0574L26.7682 32.1969C26.8314 32.411 26.8682 32.632 26.878 32.855V34.5557C26.8825 35.0906 26.7088 35.6118 26.3842 36.037L25.2322 37.5184" stroke="#4E5DEE" stroke-width="1.89837" stroke-linecap="round" stroke-linejoin="round"/>
<path d="M32.9128 28.1921L33.3517 29.4539C33.4695 29.8447 33.5068 30.2553 33.4614 30.6609L33.1871 32.5261" stroke="#4E5DEE" stroke-width="1.89837" stroke-linecap="round" stroke-linejoin="round"/>
<path d="M24.1351 30.3869L24.2449 33.9528C24.2537 34.1012 24.2351 34.25 24.19 34.3917L23.8059 36.6958C23.757 36.9924 23.6493 37.2762 23.4891 37.5306C23.329 37.785 23.1196 38.0048 22.8733 38.1771L21.7761 39" stroke="#4E5DEE" stroke-width="1.89837" stroke-linecap="round" stroke-linejoin="round"/>
<path d="M30.4441 28.631L31.1022 30.0574C31.2647 30.3906 31.3492 30.7564 31.3492 31.1271C31.3492 31.4978 31.2647 31.8637 31.1022 32.1969L30.6085 33.2392" stroke="#4E5DEE" stroke-width="1.89837" stroke-linecap="round" stroke-linejoin="round"/>
<path d="M36.095 21.0602L36.863 20.2921C37.7788 19.3257 38.9639 18.6567 40.2646 18.372L44.6534 17.3845" stroke="#4E5DEE" stroke-width="1.89837" stroke-linecap="round" stroke-linejoin="round"/>
<path d="M15.464 25.5582C13.1177 27.7567 11.4759 30.6015 10.7462 33.733V33.7884C10.7007 33.9671 10.682 34.1515 10.6907 34.3357C10.6875 34.6969 10.7562 35.0551 10.8929 35.3894C11.0296 35.7237 11.2316 36.0274 11.487 36.2828C11.7424 36.5382 12.0461 36.7402 12.3804 36.8769C12.7148 37.0136 13.073 37.0824 13.4341 37.0791C13.584 37.0849 13.7337 37.0662 13.8775 37.0237C14.4097 36.9799 14.9393 36.9082 15.464 36.8089" stroke="#4E5DEE" stroke-width="1.89837" stroke-linecap="round" stroke-linejoin="round"/>
<path d="M37.1342 27.0961C37.4839 26.8677 37.7989 26.5901 38.0694 26.2717L38.1249 26.2163L38.1803 26.1609V26.1055C39.0765 25.1157 39.5663 23.8243 39.552 22.4891C39.5536 22.2082 39.5304 21.9277 39.4827 21.6509C39.3451 20.7159 38.9627 19.834 38.3743 19.0945C38.3258 19.0252 38.2634 18.956 38.208 18.8867C37.3575 17.8982 36.1795 17.249 34.8896 17.0577C34.6173 17.012 34.3411 16.9934 34.0652 17.0023C33.2998 17.0041 32.5433 17.1659 31.8442 17.4773C31.1451 17.7887 30.5188 18.2428 30.0055 18.8105H29.0702C28.0517 18.8865 27.0748 19.2465 26.2506 19.8496" stroke="#4E5DEE" stroke-width="1.89837" stroke-linecap="round" stroke-linejoin="round"/>
<path d="M27.5334 21.7745C27.5334 21.7745 26.6744 21.3934 25.275 20.7422C25.2602 20.7408 25.246 20.7361 25.2334 20.7284C24.8454 20.569 24.4644 20.3473 24.028 20.1811C20.3631 18.5808 14.4537 16.2876 9.916 15.7681C9.08208 15.663 8.24024 15.6351 7.4012 15.6849C5.31593 15.8512 3.83338 16.6687 3.56319 18.5392C3.0159 22.488 7.78916 24.3516 12.7772 25.176C13.657 25.3423 14.5923 25.4462 15.4652 25.5571C18.0725 25.8262 20.6937 25.9372 23.3144 25.8896" stroke="#4E5DEE" stroke-width="1.89837" stroke-linecap="round" stroke-linejoin="round"/>
<path d="M75.24 21.52C76.8933 21.8933 78.2 22.72 79.16 24C80.1467 25.2533 80.64 26.6933 80.64 28.32C80.64 30.72 79.8133 32.6 78.16 33.96C76.5067 35.32 74.1867 36 71.2 36H57.24V7.8H70.76C73.64 7.8 75.8933 8.44 77.52 9.72C79.1733 11 80 12.8 80 15.12C80 16.7733 79.56 18.16 78.68 19.28C77.8267 20.3733 76.68 21.12 75.24 21.52ZM65.08 19H69.04C71.0133 19 72 18.1867 72 16.56C72 14.88 71.0133 14.04 69.04 14.04H65.08V19ZM69.64 29.68C71.6133 29.68 72.6 28.8533 72.6 27.2C72.6 26.3467 72.3333 25.6933 71.8 25.24C71.2933 24.7867 70.56 24.56 69.6 24.56H65.08V29.68H69.64ZM98.3159 14.08V18.68H107.316V24.64H98.3159V29.72H108.516V36H90.4759V7.8H108.516V14.08H98.3159ZM126.63 14.08V18.68H135.63V24.64H126.63V29.72H136.83V36H118.79V7.8H136.83V14.08H126.63Z" fill="black"/>
<path d="M168.344 7.8V14.04H160.824V36H152.984V14.04H145.544V7.8H168.344ZM185.485 30H194.245V36H177.645V7.8H185.485V30ZM211.533 14.08V18.68H220.533V24.64H211.533V29.72H221.733V36H203.693V7.8H221.733V14.08H211.533Z" fill="#4E5DEE"/>
<path d="M57.595 47.05C57.595 45.8827 57.8557 44.84 58.377 43.922C58.9097 42.9927 59.6293 42.273 60.536 41.763C61.454 41.2417 62.4797 40.981 63.613 40.981C64.939 40.981 66.1007 41.321 67.098 42.001C68.0953 42.681 68.7923 43.6217 69.189 44.823H66.452C66.18 44.2563 65.7947 43.8313 65.296 43.548C64.8087 43.2647 64.242 43.123 63.596 43.123C62.9047 43.123 62.287 43.2873 61.743 43.616C61.2103 43.9333 60.791 44.3867 60.485 44.976C60.1903 45.5653 60.043 46.2567 60.043 47.05C60.043 47.832 60.1903 48.5233 60.485 49.124C60.791 49.7133 61.2103 50.1723 61.743 50.501C62.287 50.8183 62.9047 50.977 63.596 50.977C64.242 50.977 64.8087 50.8353 65.296 50.552C65.7947 50.2573 66.18 49.8267 66.452 49.26H69.189C68.7923 50.4727 68.0953 51.419 67.098 52.099C66.112 52.7677 64.9503 53.102 63.613 53.102C62.4797 53.102 61.454 52.847 60.536 52.337C59.6293 51.8157 58.9097 51.096 58.377 50.178C57.8557 49.26 57.595 48.2173 57.595 47.05ZM80.2998 48.257C80.2998 47.305 80.4868 46.4607 80.8608 45.724C81.2462 44.9873 81.7618 44.4207 82.4078 44.024C83.0652 43.6273 83.7962 43.429 84.6008 43.429C85.3035 43.429 85.9155 43.5707 86.4368 43.854C86.9695 44.1373 87.3945 44.4943 87.7118 44.925V43.582H90.1088V53H87.7118V51.623C87.4058 52.065 86.9808 52.4333 86.4368 52.728C85.9042 53.0113 85.2865 53.153 84.5838 53.153C83.7905 53.153 83.0652 52.949 82.4078 52.541C81.7618 52.133 81.2462 51.5607 80.8608 50.824C80.4868 50.076 80.2998 49.2203 80.2998 48.257ZM87.7118 48.291C87.7118 47.713 87.5985 47.22 87.3718 46.812C87.1452 46.3927 86.8392 46.0753 86.4538 45.86C86.0685 45.6333 85.6548 45.52 85.2128 45.52C84.7708 45.52 84.3628 45.6277 83.9888 45.843C83.6148 46.0583 83.3088 46.3757 83.0708 46.795C82.8442 47.203 82.7308 47.6903 82.7308 48.257C82.7308 48.8237 82.8442 49.3223 83.0708 49.753C83.3088 50.1723 83.6148 50.4953 83.9888 50.722C84.3742 50.9487 84.7822 51.062 85.2128 51.062C85.6548 51.062 86.0685 50.9543 86.4538 50.739C86.8392 50.5123 87.1452 50.195 87.3718 49.787C87.5985 49.3677 87.7118 48.869 87.7118 48.291ZM104.503 45.044C104.809 44.5453 105.206 44.1543 105.693 43.871C106.192 43.5877 106.759 43.446 107.393 43.446V45.945H106.764C106.016 45.945 105.45 46.1207 105.064 46.472C104.69 46.8233 104.503 47.4353 104.503 48.308V53H102.123V43.582H104.503V45.044Z" fill="#4E5DEE"/>
<path d="M124.806 53L122.188 48.376H121.066V53H118.686V41.134H123.14C124.058 41.134 124.84 41.2983 125.486 41.627C126.132 41.9443 126.614 42.3807 126.931 42.936C127.26 43.48 127.424 44.092 127.424 44.772C127.424 45.554 127.198 46.2623 126.744 46.897C126.291 47.5203 125.617 47.951 124.721 48.189L127.56 53H124.806ZM121.066 46.591H123.055C123.701 46.591 124.183 46.438 124.5 46.132C124.818 45.8147 124.976 45.3783 124.976 44.823C124.976 44.279 124.818 43.8597 124.5 43.565C124.183 43.259 123.701 43.106 123.055 43.106H121.066V46.591ZM148.022 48.087C148.022 48.427 147.999 48.733 147.954 49.005H141.069C141.126 49.685 141.364 50.2177 141.783 50.603C142.202 50.9883 142.718 51.181 143.33 51.181C144.214 51.181 144.843 50.8013 145.217 50.042H147.784C147.512 50.9487 146.991 51.6967 146.22 52.286C145.449 52.864 144.503 53.153 143.381 53.153C142.474 53.153 141.658 52.9547 140.933 52.558C140.219 52.15 139.658 51.5777 139.25 50.841C138.853 50.1043 138.655 49.2543 138.655 48.291C138.655 47.3163 138.853 46.4607 139.25 45.724C139.647 44.9873 140.202 44.4207 140.916 44.024C141.63 43.6273 142.452 43.429 143.381 43.429C144.276 43.429 145.075 43.6217 145.778 44.007C146.492 44.3923 147.042 44.942 147.427 45.656C147.824 46.3587 148.022 47.169 148.022 48.087ZM145.557 47.407C145.546 46.795 145.325 46.3077 144.894 45.945C144.463 45.571 143.936 45.384 143.313 45.384C142.724 45.384 142.225 45.5653 141.817 45.928C141.42 46.2793 141.177 46.7723 141.086 47.407H145.557ZM164.668 43.446C165.79 43.446 166.697 43.803 167.388 44.517C168.08 45.2197 168.425 46.2057 168.425 47.475V53H166.045V47.798C166.045 47.05 165.858 46.4777 165.484 46.081C165.11 45.673 164.6 45.469 163.954 45.469C163.297 45.469 162.776 45.673 162.39 46.081C162.016 46.4777 161.829 47.05 161.829 47.798V53H159.449V43.582H161.829V44.755C162.147 44.347 162.549 44.0297 163.036 43.803C163.535 43.565 164.079 43.446 164.668 43.446ZM183.149 45.537V50.093C183.149 50.4103 183.223 50.6427 183.37 50.79C183.529 50.926 183.79 50.994 184.152 50.994H185.257V53H183.761C181.755 53 180.752 52.0253 180.752 50.076V45.537H179.63V43.582H180.752V41.253H183.149V43.582H185.257V45.537H183.149ZM196.047 48.257C196.047 47.305 196.234 46.4607 196.608 45.724C196.994 44.9873 197.509 44.4207 198.155 44.024C198.813 43.6273 199.544 43.429 200.348 43.429C201.051 43.429 201.663 43.5707 202.184 43.854C202.717 44.1373 203.142 44.4943 203.459 44.925V43.582H205.856V53H203.459V51.623C203.153 52.065 202.728 52.4333 202.184 52.728C201.652 53.0113 201.034 53.153 200.331 53.153C199.538 53.153 198.813 52.949 198.155 52.541C197.509 52.133 196.994 51.5607 196.608 50.824C196.234 50.076 196.047 49.2203 196.047 48.257ZM203.459 48.291C203.459 47.713 203.346 47.22 203.119 46.812C202.893 46.3927 202.587 46.0753 202.201 45.86C201.816 45.6333 201.402 45.52 200.96 45.52C200.518 45.52 200.11 45.6277 199.736 45.843C199.362 46.0583 199.056 46.3757 198.818 46.795C198.592 47.203 198.478 47.6903 198.478 48.257C198.478 48.8237 198.592 49.3223 198.818 49.753C199.056 50.1723 199.362 50.4953 199.736 50.722C200.122 50.9487 200.53 51.062 200.96 51.062C201.402 51.062 201.816 50.9543 202.201 50.739C202.587 50.5123 202.893 50.195 203.119 49.787C203.346 49.3677 203.459 48.869 203.459 48.291ZM220.251 40.42V53H217.871V40.42H220.251Z" fill="black"/>
</svg>
