<svg width="190" height="48" viewBox="0 0 190 48" fill="none" xmlns="http://www.w3.org/2000/svg">
<circle cx="24" cy="24" r="23.5" fill="white" stroke="#E6C347"/>
<path d="M9.92293 15.7681C9.57654 14.1954 9.63889 13.1632 9.99914 12.5397C10.4494 11.8053 11.2946 11.6044 12.4377 11.7638C16.2134 12.3734 22.8987 17.2506 26.2518 19.8485" stroke="#E6C347" stroke-width="1.89837" stroke-linecap="round" stroke-linejoin="round"/>
<path d="M39.4827 21.6509L40.0993 21.5539C40.7651 21.3972 41.4558 21.3783 42.1291 21.4985L43.7225 21.7202L45.4199 21.9903" stroke="#E6C347" stroke-width="1.89837" stroke-linecap="round" stroke-linejoin="round"/>
<path d="M26.1101 30.0574L26.7682 32.1969C26.8314 32.411 26.8682 32.632 26.878 32.855V34.5557C26.8825 35.0906 26.7088 35.6118 26.3842 36.037L25.2322 37.5184" stroke="#E6C347" stroke-width="1.89837" stroke-linecap="round" stroke-linejoin="round"/>
<path d="M32.9128 28.1921L33.3517 29.4539C33.4695 29.8447 33.5068 30.2553 33.4614 30.6609L33.1871 32.5261" stroke="#E6C347" stroke-width="1.89837" stroke-linecap="round" stroke-linejoin="round"/>
<path d="M24.1351 30.3869L24.2449 33.9528C24.2537 34.1012 24.2351 34.25 24.19 34.3917L23.8059 36.6958C23.757 36.9924 23.6493 37.2762 23.4891 37.5306C23.329 37.785 23.1196 38.0048 22.8733 38.1771L21.7761 39" stroke="#E6C347" stroke-width="1.89837" stroke-linecap="round" stroke-linejoin="round"/>
<path d="M30.4441 28.631L31.1022 30.0574C31.2647 30.3906 31.3492 30.7564 31.3492 31.1271C31.3492 31.4978 31.2647 31.8637 31.1022 32.1969L30.6085 33.2392" stroke="#E6C347" stroke-width="1.89837" stroke-linecap="round" stroke-linejoin="round"/>
<path d="M36.095 21.0602L36.863 20.2921C37.7788 19.3257 38.9639 18.6567 40.2646 18.372L44.6534 17.3845" stroke="#E6C347" stroke-width="1.89837" stroke-linecap="round" stroke-linejoin="round"/>
<path d="M15.464 25.5582C13.1177 27.7567 11.4759 30.6015 10.7462 33.733V33.7884C10.7007 33.9671 10.682 34.1515 10.6907 34.3357C10.6875 34.6969 10.7562 35.0551 10.8929 35.3894C11.0296 35.7237 11.2316 36.0274 11.487 36.2828C11.7424 36.5382 12.0461 36.7402 12.3804 36.8769C12.7148 37.0136 13.073 37.0824 13.4341 37.0791C13.584 37.0849 13.7337 37.0662 13.8775 37.0237C14.4097 36.9799 14.9393 36.9082 15.464 36.8089" stroke="#E6C347" stroke-width="1.89837" stroke-linecap="round" stroke-linejoin="round"/>
<path d="M37.1342 27.0961C37.4839 26.8677 37.7989 26.5901 38.0694 26.2717L38.1249 26.2163L38.1803 26.1609V26.1055C39.0765 25.1157 39.5663 23.8243 39.552 22.4891C39.5536 22.2082 39.5304 21.9277 39.4827 21.6509C39.3451 20.7159 38.9627 19.834 38.3743 19.0945C38.3258 19.0252 38.2634 18.956 38.208 18.8867C37.3575 17.8982 36.1795 17.249 34.8896 17.0577C34.6173 17.012 34.3411 16.9934 34.0652 17.0023C33.2998 17.0041 32.5433 17.1659 31.8442 17.4773C31.1451 17.7887 30.5188 18.2428 30.0055 18.8105H29.0702C28.0517 18.8865 27.0748 19.2465 26.2506 19.8496" stroke="#E6C347" stroke-width="1.89837" stroke-linecap="round" stroke-linejoin="round"/>
<path d="M27.5334 21.7745C27.5334 21.7745 26.6744 21.3934 25.275 20.7422C25.2602 20.7408 25.246 20.7361 25.2334 20.7284C24.8454 20.569 24.4644 20.3473 24.028 20.1811C20.3631 18.5808 14.4537 16.2876 9.916 15.7681C9.08208 15.663 8.24024 15.6351 7.4012 15.6849C5.31593 15.8512 3.83338 16.6687 3.56319 18.5392C3.0159 22.488 7.78916 24.3516 12.7772 25.176C13.657 25.3423 14.5923 25.4462 15.4652 25.5571C18.0725 25.8262 20.6937 25.9372 23.3144 25.8896" stroke="#E6C347" stroke-width="1.89837" stroke-linecap="round" stroke-linejoin="round"/>
<path d="M75.24 24.52C76.8933 24.8933 78.2 25.72 79.16 27C80.1467 28.2533 80.64 29.6933 80.64 31.32C80.64 33.72 79.8133 35.6 78.16 36.96C76.5067 38.32 74.1867 39 71.2 39H57.24V10.8H70.76C73.64 10.8 75.8933 11.44 77.52 12.72C79.1733 14 80 15.8 80 18.12C80 19.7733 79.56 21.16 78.68 22.28C77.8267 23.3733 76.68 24.12 75.24 24.52ZM65.08 22H69.04C71.0133 22 72 21.1867 72 19.56C72 17.88 71.0133 17.04 69.04 17.04H65.08V22ZM69.64 32.68C71.6133 32.68 72.6 31.8533 72.6 30.2C72.6 29.3467 72.3333 28.6933 71.8 28.24C71.2933 27.7867 70.56 27.56 69.6 27.56H65.08V32.68H69.64ZM91.9159 17.08V21.68H100.916V27.64H91.9159V32.72H102.116V39H84.0759V10.8H102.116V17.08H91.9159ZM113.83 17.08V21.68H122.83V27.64H113.83V32.72H124.03V39H105.99V10.8H124.03V17.08H113.83Z" fill="#E6C347"/>
<path d="M149.144 10.8V17.04H141.624V39H133.784V17.04H126.344V10.8H149.144ZM159.885 33H168.645V39H152.045V10.8H159.885V33ZM179.533 17.08V21.68H188.533V27.64H179.533V32.72H189.733V39H171.693V10.8H189.733V17.08H179.533Z" fill="black"/>
</svg>
